<?xml version="1.0" encoding="UTF-8"?>
<svg xmlns="http://www.w3.org/2000/svg" xmlns:xlink="http://www.w3.org/1999/xlink" width="32px" height="32px" viewBox="0 0 32 32" version="1.1">
<g id="surface1">
<path style=" stroke:none;fill-rule:nonzero;fill:rgb(16.862746%,67.450982%,54.901963%);fill-opacity:1;" d="M 9.421875 4.589844 C 9.480469 4.589844 9.539062 4.589844 9.597656 4.589844 C 9.792969 4.589844 9.992188 4.589844 10.1875 4.589844 C 10.328125 4.589844 10.46875 4.585938 10.609375 4.585938 C 10.992188 4.585938 11.375 4.585938 11.757812 4.585938 C 11.996094 4.585938 12.234375 4.582031 12.476562 4.582031 C 13.265625 4.582031 14.058594 4.582031 14.847656 4.582031 C 14.890625 4.582031 14.933594 4.582031 14.976562 4.582031 C 15.019531 4.582031 15.0625 4.582031 15.109375 4.582031 C 15.796875 4.582031 16.488281 4.578125 17.179688 4.578125 C 17.890625 4.574219 18.601562 4.574219 19.3125 4.574219 C 19.710938 4.574219 20.109375 4.570312 20.507812 4.570312 C 20.882812 4.570312 21.257812 4.570312 21.632812 4.570312 C 21.773438 4.570312 21.910156 4.570312 22.046875 4.566406 C 23.421875 4.558594 23.421875 4.558594 23.871094 4.929688 C 24.179688 5.25 24.375 5.636719 24.570312 6.03125 C 24.753906 6.382812 24.933594 6.730469 25.136719 7.066406 C 25.3125 7.367188 25.472656 7.675781 25.625 7.988281 C 25.921875 8.582031 26.242188 9.160156 26.574219 9.734375 C 26.722656 9.992188 26.855469 10.253906 26.984375 10.519531 C 27.128906 10.800781 27.289062 11.070312 27.445312 11.339844 C 27.835938 12.019531 28.195312 12.710938 28.5625 13.402344 C 28.628906 13.527344 28.695312 13.65625 28.761719 13.78125 C 28.800781 13.855469 28.839844 13.929688 28.882812 14.007812 C 28.980469 14.183594 29.082031 14.355469 29.183594 14.527344 C 29.324219 14.898438 29.277344 15.339844 29.148438 15.707031 C 28.972656 16.023438 28.707031 16.273438 28.457031 16.53125 C 28.289062 16.683594 28.289062 16.683594 28.222656 16.832031 C 28.183594 16.832031 28.140625 16.832031 28.097656 16.832031 C 28.097656 16.875 28.097656 16.917969 28.097656 16.960938 C 28.054688 16.960938 28.011719 16.960938 27.96875 16.960938 C 27.96875 17.003906 27.96875 17.042969 27.96875 17.089844 C 27.925781 17.089844 27.882812 17.089844 27.839844 17.089844 C 27.816406 17.140625 27.816406 17.140625 27.796875 17.191406 C 27.613281 17.523438 27.339844 17.785156 27.070312 18.046875 C 26.96875 18.148438 26.871094 18.246094 26.769531 18.347656 C 26.71875 18.398438 26.667969 18.445312 26.617188 18.496094 C 26.492188 18.613281 26.492188 18.613281 26.433594 18.753906 C 26.390625 18.753906 26.347656 18.753906 26.304688 18.753906 C 26.261719 18.835938 26.21875 18.921875 26.175781 19.007812 C 26.132812 19.007812 26.089844 19.007812 26.046875 19.007812 C 26.03125 19.046875 26.011719 19.085938 25.992188 19.125 C 25.921875 19.265625 25.921875 19.265625 25.792969 19.457031 C 25.75 19.457031 25.707031 19.457031 25.664062 19.457031 C 25.648438 19.492188 25.632812 19.53125 25.617188 19.566406 C 25.523438 19.734375 25.414062 19.84375 25.277344 19.976562 C 25.09375 20.144531 25.09375 20.144531 24.960938 20.351562 C 24.917969 20.351562 24.875 20.351562 24.832031 20.351562 C 24.816406 20.390625 24.796875 20.425781 24.78125 20.464844 C 24.703125 20.609375 24.617188 20.722656 24.511719 20.847656 C 24.480469 20.886719 24.445312 20.925781 24.410156 20.96875 C 24.320312 21.054688 24.320312 21.054688 24.191406 21.054688 C 24.171875 21.121094 24.148438 21.183594 24.128906 21.246094 C 24.085938 21.246094 24.042969 21.246094 24 21.246094 C 23.972656 21.304688 23.972656 21.304688 23.949219 21.359375 C 23.871094 21.507812 23.789062 21.632812 23.679688 21.761719 C 23.636719 21.761719 23.59375 21.761719 23.550781 21.761719 C 23.550781 21.800781 23.550781 21.84375 23.550781 21.886719 C 23.507812 21.886719 23.46875 21.886719 23.425781 21.886719 C 23.40625 21.925781 23.390625 21.960938 23.375 22 C 23.289062 22.160156 23.191406 22.257812 23.058594 22.382812 C 22.761719 22.671875 22.472656 22.972656 22.234375 23.3125 C 22.207031 23.347656 22.175781 23.386719 22.144531 23.425781 C 22.101562 23.425781 22.058594 23.425781 22.015625 23.425781 C 22.015625 23.464844 22.015625 23.507812 22.015625 23.550781 C 21.972656 23.550781 21.929688 23.550781 21.886719 23.550781 C 21.871094 23.589844 21.855469 23.628906 21.835938 23.667969 C 21.757812 23.808594 21.675781 23.910156 21.566406 24.027344 C 21.527344 24.070312 21.488281 24.109375 21.445312 24.152344 C 21.382812 24.21875 21.382812 24.21875 21.320312 24.285156 C 21.234375 24.375 21.148438 24.46875 21.058594 24.558594 C 20.996094 24.625 20.996094 24.625 20.929688 24.695312 C 20.738281 24.898438 20.546875 25.101562 20.359375 25.304688 C 20.328125 25.339844 20.296875 25.375 20.261719 25.410156 C 20.097656 25.585938 20.097656 25.585938 19.96875 25.792969 C 19.925781 25.792969 19.882812 25.792969 19.839844 25.792969 C 19.839844 25.835938 19.839844 25.875 19.839844 25.921875 C 19.796875 25.921875 19.753906 25.921875 19.710938 25.921875 C 19.6875 25.976562 19.6875 25.976562 19.660156 26.035156 C 19.582031 26.179688 19.5 26.277344 19.390625 26.394531 C 19.351562 26.4375 19.3125 26.476562 19.273438 26.519531 C 19.214844 26.582031 19.214844 26.582031 19.152344 26.644531 C 19.074219 26.726562 18.996094 26.808594 18.917969 26.890625 C 18.878906 26.929688 18.839844 26.972656 18.800781 27.011719 C 18.65625 27.171875 18.519531 27.335938 18.382812 27.503906 C 18.359375 27.53125 18.332031 27.554688 18.304688 27.585938 C 18.261719 27.585938 18.21875 27.585938 18.175781 27.585938 C 18.160156 27.621094 18.144531 27.65625 18.128906 27.691406 C 18.035156 27.863281 17.921875 27.996094 17.792969 28.144531 C 17.746094 28.195312 17.703125 28.246094 17.65625 28.300781 C 17.535156 28.414062 17.535156 28.414062 17.40625 28.414062 C 17.40625 28.457031 17.40625 28.5 17.40625 28.542969 C 17.289062 28.605469 17.167969 28.667969 17.046875 28.730469 C 16.980469 28.765625 16.914062 28.800781 16.84375 28.835938 C 16.335938 29.0625 15.753906 29.054688 15.230469 28.863281 C 14.828125 28.683594 14.484375 28.445312 14.207031 28.097656 C 14.207031 28.054688 14.207031 28.011719 14.207031 27.96875 C 14.164062 27.96875 14.125 27.96875 14.078125 27.96875 C 14.078125 27.925781 14.078125 27.882812 14.078125 27.839844 C 14.039062 27.839844 13.996094 27.839844 13.953125 27.839844 C 13.863281 27.75 13.863281 27.75 13.757812 27.625 C 13.714844 27.578125 13.675781 27.53125 13.632812 27.480469 C 13.589844 27.429688 13.546875 27.378906 13.503906 27.328125 C 13.238281 27.027344 12.96875 26.730469 12.691406 26.4375 C 12.652344 26.394531 12.609375 26.351562 12.566406 26.308594 C 12.484375 26.21875 12.402344 26.132812 12.320312 26.046875 C 12.285156 26.007812 12.246094 25.96875 12.207031 25.929688 C 12.175781 25.890625 12.140625 25.855469 12.105469 25.820312 C 12.03125 25.726562 12.03125 25.726562 12.03125 25.601562 C 11.988281 25.601562 11.949219 25.601562 11.902344 25.601562 C 11.792969 25.492188 11.792969 25.492188 11.671875 25.351562 C 11.632812 25.304688 11.589844 25.261719 11.550781 25.210938 C 11.457031 25.089844 11.457031 25.089844 11.457031 24.960938 C 11.414062 24.960938 11.371094 24.960938 11.328125 24.960938 C 11.25 24.882812 11.25 24.882812 11.152344 24.765625 C 10.992188 24.574219 10.824219 24.386719 10.652344 24.207031 C 10.613281 24.164062 10.574219 24.121094 10.53125 24.078125 C 10.449219 23.992188 10.367188 23.90625 10.285156 23.820312 C 10.246094 23.78125 10.210938 23.738281 10.171875 23.699219 C 10.136719 23.664062 10.101562 23.625 10.066406 23.589844 C 9.984375 23.488281 9.984375 23.488281 9.921875 23.296875 C 9.878906 23.296875 9.835938 23.296875 9.792969 23.296875 C 9.683594 23.191406 9.683594 23.191406 9.5625 23.050781 C 9.523438 23.007812 9.484375 22.960938 9.445312 22.914062 C 9.34375 22.785156 9.34375 22.785156 9.28125 22.59375 C 9.238281 22.59375 9.195312 22.59375 9.152344 22.59375 C 9.152344 22.550781 9.152344 22.507812 9.152344 22.464844 C 9.109375 22.464844 9.066406 22.464844 9.023438 22.464844 C 8.917969 22.359375 8.917969 22.359375 8.800781 22.222656 C 8.742188 22.15625 8.742188 22.15625 8.683594 22.089844 C 8.574219 21.953125 8.574219 21.953125 8.511719 21.8125 C 8.453125 21.671875 8.453125 21.671875 8.257812 21.632812 C 8.152344 21.53125 8.152344 21.53125 8.050781 21.410156 C 8.019531 21.371094 7.984375 21.332031 7.949219 21.292969 C 7.871094 21.183594 7.871094 21.183594 7.871094 21.054688 C 7.828125 21.054688 7.789062 21.054688 7.742188 21.054688 C 7.742188 21.015625 7.742188 20.972656 7.742188 20.929688 C 7.703125 20.929688 7.660156 20.929688 7.617188 20.929688 C 7.535156 20.851562 7.535156 20.851562 7.441406 20.730469 C 7.277344 20.542969 7.113281 20.355469 6.941406 20.175781 C 6.902344 20.132812 6.859375 20.089844 6.820312 20.046875 C 6.738281 19.960938 6.65625 19.875 6.574219 19.789062 C 6.515625 19.726562 6.515625 19.726562 6.457031 19.667969 C 6.425781 19.628906 6.390625 19.59375 6.355469 19.558594 C 6.273438 19.457031 6.273438 19.457031 6.207031 19.265625 C 6.164062 19.265625 6.125 19.265625 6.078125 19.265625 C 6.078125 19.222656 6.078125 19.179688 6.078125 19.136719 C 6.039062 19.136719 5.996094 19.136719 5.953125 19.136719 C 5.84375 19.03125 5.84375 19.03125 5.722656 18.890625 C 5.683594 18.847656 5.644531 18.800781 5.605469 18.753906 C 5.503906 18.625 5.503906 18.625 5.441406 18.433594 C 5.398438 18.433594 5.355469 18.433594 5.3125 18.433594 C 5.203125 18.324219 5.203125 18.324219 5.078125 18.183594 C 5.039062 18.136719 5 18.09375 4.957031 18.042969 C 4.863281 17.921875 4.863281 17.921875 4.863281 17.792969 C 4.808594 17.769531 4.808594 17.769531 4.75 17.742188 C 4.589844 17.65625 4.503906 17.5625 4.386719 17.425781 C 4.347656 17.378906 4.3125 17.332031 4.269531 17.285156 C 4.175781 17.171875 4.085938 17.0625 3.992188 16.949219 C 3.8125 16.734375 3.617188 16.535156 3.410156 16.347656 C 3.015625 15.976562 2.808594 15.652344 2.769531 15.105469 C 2.789062 14.382812 3.246094 13.75 3.617188 13.15625 C 3.777344 12.882812 3.914062 12.59375 4.050781 12.308594 C 4.160156 12.097656 4.285156 11.910156 4.414062 11.710938 C 4.484375 11.578125 4.554688 11.441406 4.621094 11.304688 C 4.851562 10.828125 5.113281 10.367188 5.375 9.90625 C 5.582031 9.542969 5.777344 9.175781 5.972656 8.804688 C 6.027344 8.703125 6.082031 8.597656 6.136719 8.492188 C 6.164062 8.4375 6.191406 8.386719 6.21875 8.332031 C 6.382812 8.019531 6.550781 7.714844 6.726562 7.410156 C 6.910156 7.097656 7.078125 6.78125 7.234375 6.457031 C 7.996094 4.925781 7.996094 4.925781 8.613281 4.667969 C 8.886719 4.59375 9.136719 4.589844 9.421875 4.589844 Z M 11.519531 9.023438 C 11.492188 9.15625 11.492188 9.15625 11.496094 9.308594 C 11.496094 9.367188 11.496094 9.429688 11.496094 9.492188 C 11.496094 9.558594 11.496094 9.621094 11.5 9.691406 C 11.5 9.761719 11.5 9.828125 11.5 9.902344 C 11.5 10.128906 11.5 10.359375 11.5 10.589844 C 11.5 10.75 11.5 10.910156 11.503906 11.066406 C 11.503906 11.445312 11.503906 11.820312 11.507812 12.195312 C 11.507812 12.667969 11.507812 13.136719 11.511719 13.609375 C 11.511719 14.449219 11.515625 15.289062 11.519531 16.128906 C 11.746094 16.222656 11.941406 16.28125 12.183594 16.308594 C 12.25 16.320312 12.316406 16.328125 12.382812 16.335938 C 12.484375 16.347656 12.484375 16.347656 12.589844 16.359375 C 12.65625 16.367188 12.722656 16.378906 12.789062 16.386719 C 13.203125 16.4375 13.601562 16.457031 14.015625 16.449219 C 14.015625 16.214844 14.015625 15.984375 14.015625 15.742188 C 14.121094 15.746094 14.121094 15.746094 14.230469 15.746094 C 14.902344 15.746094 15.570312 15.746094 16.242188 15.746094 C 16.585938 15.746094 16.929688 15.75 17.273438 15.75 C 17.605469 15.75 17.9375 15.75 18.269531 15.75 C 18.394531 15.75 18.523438 15.75 18.648438 15.75 C 18.828125 15.75 19.003906 15.75 19.183594 15.75 C 19.234375 15.75 19.289062 15.75 19.34375 15.753906 C 19.578125 15.773438 19.578125 15.773438 19.777344 15.679688 C 19.777344 15.089844 19.777344 14.496094 19.777344 13.886719 C 17.894531 13.867188 16.015625 13.847656 14.078125 13.824219 C 14.078125 13.042969 14.078125 12.261719 14.078125 11.457031 C 14.382812 11.453125 14.382812 11.453125 14.6875 11.449219 C 15.351562 11.445312 16.015625 11.441406 16.675781 11.433594 C 17.078125 11.429688 17.480469 11.425781 17.882812 11.425781 C 18.269531 11.421875 18.65625 11.417969 19.046875 11.414062 C 19.195312 11.414062 19.339844 11.410156 19.488281 11.410156 C 19.695312 11.410156 19.902344 11.40625 20.109375 11.40625 C 20.171875 11.40625 20.234375 11.40625 20.296875 11.402344 C 20.355469 11.402344 20.410156 11.402344 20.46875 11.402344 C 20.515625 11.402344 20.566406 11.402344 20.617188 11.402344 C 20.742188 11.398438 20.742188 11.398438 20.863281 11.328125 C 20.867188 11.003906 20.871094 10.675781 20.875 10.351562 C 20.875 10.238281 20.875 10.128906 20.878906 10.019531 C 20.878906 9.859375 20.882812 9.699219 20.882812 9.539062 C 20.882812 9.492188 20.882812 9.441406 20.886719 9.390625 C 20.886719 9.234375 20.886719 9.234375 20.863281 9.023438 C 20.644531 8.878906 20.566406 8.878906 20.308594 8.878906 C 20.195312 8.878906 20.195312 8.878906 20.082031 8.878906 C 20 8.878906 19.917969 8.878906 19.832031 8.878906 C 19.742188 8.878906 19.65625 8.878906 19.566406 8.878906 C 19.328125 8.878906 19.089844 8.878906 18.847656 8.878906 C 18.597656 8.878906 18.347656 8.878906 18.097656 8.878906 C 17.679688 8.878906 17.261719 8.878906 16.839844 8.878906 C 16.355469 8.878906 15.867188 8.878906 15.382812 8.878906 C 14.964844 8.878906 14.550781 8.878906 14.132812 8.878906 C 13.882812 8.878906 13.636719 8.878906 13.386719 8.878906 C 13.152344 8.878906 12.917969 8.878906 12.683594 8.878906 C 12.554688 8.878906 12.429688 8.878906 12.300781 8.878906 C 12.226562 8.878906 12.152344 8.878906 12.074219 8.878906 C 11.976562 8.878906 11.976562 8.878906 11.875 8.878906 C 11.695312 8.882812 11.695312 8.882812 11.519531 9.023438 Z M 10.101562 14.035156 C 10.035156 14.050781 9.96875 14.0625 9.898438 14.078125 C 9.542969 14.152344 9.226562 14.242188 8.894531 14.398438 C 8.824219 14.425781 8.753906 14.457031 8.679688 14.484375 C 8.25 14.683594 7.8125 14.910156 7.617188 15.359375 C 7.601562 15.671875 7.636719 15.859375 7.84375 16.097656 C 8.816406 16.953125 10.28125 17.210938 11.519531 17.40625 C 11.519531 17.480469 11.519531 17.480469 11.519531 17.550781 C 11.511719 18 11.507812 18.449219 11.507812 18.898438 C 11.503906 19.128906 11.503906 19.359375 11.5 19.589844 C 11.496094 19.808594 11.496094 20.03125 11.496094 20.253906 C 11.496094 20.382812 11.492188 20.507812 11.492188 20.632812 C 11.492188 20.710938 11.492188 20.789062 11.492188 20.867188 C 11.488281 20.96875 11.488281 20.96875 11.488281 21.070312 C 11.527344 21.292969 11.605469 21.367188 11.777344 21.503906 C 11.941406 21.585938 12.0625 21.578125 12.25 21.578125 C 12.324219 21.578125 12.398438 21.578125 12.472656 21.578125 C 12.554688 21.578125 12.636719 21.578125 12.71875 21.578125 C 12.804688 21.578125 12.890625 21.578125 12.980469 21.578125 C 13.210938 21.578125 13.445312 21.578125 13.679688 21.578125 C 13.875 21.578125 14.070312 21.578125 14.265625 21.578125 C 14.726562 21.578125 15.1875 21.578125 15.648438 21.578125 C 16.125 21.578125 16.601562 21.582031 17.078125 21.582031 C 17.484375 21.582031 17.890625 21.582031 18.300781 21.582031 C 18.542969 21.582031 18.789062 21.582031 19.03125 21.582031 C 19.261719 21.585938 19.492188 21.585938 19.71875 21.582031 C 19.84375 21.582031 19.96875 21.585938 20.09375 21.585938 C 20.167969 21.585938 20.242188 21.585938 20.316406 21.582031 C 20.382812 21.582031 20.445312 21.582031 20.511719 21.582031 C 20.6875 21.578125 20.6875 21.578125 20.863281 21.441406 C 20.882812 21.269531 20.886719 21.113281 20.886719 20.941406 C 20.886719 20.867188 20.886719 20.867188 20.882812 20.789062 C 20.882812 20.6875 20.882812 20.582031 20.882812 20.476562 C 20.878906 20.316406 20.878906 20.15625 20.878906 19.996094 C 20.878906 19.894531 20.878906 19.792969 20.878906 19.691406 C 20.875 19.621094 20.875 19.621094 20.875 19.546875 C 20.894531 19.320312 20.894531 19.320312 20.800781 19.136719 C 20.710938 19.128906 20.625 19.125 20.539062 19.125 C 20.480469 19.125 20.425781 19.125 20.367188 19.125 C 20.304688 19.125 20.242188 19.125 20.175781 19.121094 C 20.109375 19.121094 20.042969 19.121094 19.976562 19.121094 C 19.757812 19.117188 19.542969 19.117188 19.324219 19.117188 C 19.171875 19.113281 19.023438 19.113281 18.871094 19.113281 C 18.476562 19.109375 18.078125 19.105469 17.679688 19.101562 C 17.277344 19.097656 16.871094 19.09375 16.464844 19.089844 C 15.671875 19.085938 14.875 19.078125 14.078125 19.070312 C 14.058594 18.648438 14.039062 18.226562 14.015625 17.792969 C 14.125 17.792969 14.234375 17.792969 14.34375 17.792969 C 14.703125 17.792969 15.0625 17.792969 15.421875 17.796875 C 15.640625 17.796875 15.859375 17.796875 16.078125 17.796875 C 16.328125 17.796875 16.578125 17.796875 16.828125 17.796875 C 16.90625 17.796875 16.984375 17.800781 17.0625 17.800781 C 17.136719 17.800781 17.210938 17.800781 17.285156 17.800781 C 17.347656 17.800781 17.414062 17.800781 17.480469 17.800781 C 17.671875 17.792969 17.855469 17.761719 18.046875 17.726562 C 18.195312 17.71875 18.339844 17.714844 18.488281 17.707031 C 20.164062 17.617188 22.925781 17.304688 24.117188 15.988281 C 24.257812 15.773438 24.265625 15.617188 24.257812 15.359375 C 24.066406 14.882812 23.582031 14.644531 23.144531 14.429688 C 22.4375 14.140625 21.683594 13.976562 20.929688 13.886719 C 20.929688 13.953125 20.929688 14.015625 20.929688 14.078125 C 20.984375 14.09375 20.984375 14.09375 21.046875 14.109375 C 21.777344 14.292969 22.445312 14.480469 23.105469 14.847656 C 23.167969 14.867188 23.230469 14.890625 23.296875 14.910156 C 23.296875 14.953125 23.296875 14.996094 23.296875 15.039062 C 23.339844 15.039062 23.378906 15.039062 23.425781 15.039062 C 23.394531 15.261719 23.367188 15.46875 23.296875 15.679688 C 23.164062 15.738281 23.164062 15.738281 22.976562 15.808594 C 22.898438 15.847656 22.820312 15.886719 22.746094 15.929688 C 19.351562 17.636719 13.425781 17.320312 9.894531 16.207031 C 9.753906 16.160156 9.613281 16.113281 9.476562 16.0625 C 9.429688 16.046875 9.382812 16.03125 9.335938 16.015625 C 9.09375 15.929688 8.90625 15.84375 8.703125 15.679688 C 8.660156 15.679688 8.621094 15.679688 8.574219 15.679688 C 8.574219 15.636719 8.574219 15.59375 8.574219 15.550781 C 8.535156 15.550781 8.492188 15.550781 8.449219 15.550781 C 8.449219 15.382812 8.449219 15.214844 8.449219 15.039062 C 8.492188 15.039062 8.53125 15.039062 8.574219 15.039062 C 8.574219 14.996094 8.574219 14.957031 8.574219 14.910156 C 8.617188 14.910156 8.660156 14.910156 8.703125 14.910156 C 8.703125 14.871094 8.703125 14.828125 8.703125 14.785156 C 8.757812 14.765625 8.816406 14.746094 8.871094 14.730469 C 9.074219 14.660156 9.269531 14.585938 9.464844 14.503906 C 9.945312 14.316406 10.441406 14.195312 10.945312 14.078125 C 10.945312 14.015625 10.945312 13.953125 10.945312 13.886719 C 10.660156 13.886719 10.375 13.976562 10.101562 14.035156 Z M 10.101562 14.035156 "/>
<path style=" stroke:none;fill-rule:nonzero;fill:rgb(21.960784%,68.627453%,56.470591%);fill-opacity:1;" d="M 11.886719 8.824219 C 11.964844 8.824219 12.039062 8.824219 12.121094 8.824219 C 12.207031 8.824219 12.292969 8.824219 12.378906 8.824219 C 12.472656 8.824219 12.5625 8.824219 12.652344 8.824219 C 12.898438 8.824219 13.148438 8.824219 13.394531 8.824219 C 13.652344 8.824219 13.910156 8.824219 14.167969 8.824219 C 14.65625 8.828125 15.144531 8.828125 15.632812 8.828125 C 16.191406 8.828125 16.746094 8.828125 17.300781 8.828125 C 18.445312 8.828125 19.589844 8.832031 20.734375 8.832031 C 20.714844 8.875 20.695312 8.917969 20.671875 8.960938 C 20.625 8.960938 20.578125 8.960938 20.53125 8.960938 C 19.414062 8.957031 18.292969 8.957031 17.175781 8.957031 C 16.632812 8.957031 16.089844 8.957031 15.550781 8.957031 C 15.078125 8.953125 14.605469 8.953125 14.132812 8.953125 C 13.882812 8.953125 13.636719 8.953125 13.386719 8.953125 C 13.148438 8.953125 12.914062 8.953125 12.679688 8.953125 C 12.550781 8.953125 12.425781 8.953125 12.296875 8.953125 C 12.222656 8.953125 12.144531 8.953125 12.066406 8.953125 C 12 8.953125 11.9375 8.953125 11.867188 8.953125 C 11.710938 8.949219 11.710938 8.949219 11.585938 9.023438 C 11.585938 11.367188 11.585938 13.710938 11.585938 16.128906 C 12.132812 16.238281 12.132812 16.238281 12.679688 16.308594 C 12.757812 16.320312 12.835938 16.328125 12.917969 16.335938 C 13.039062 16.347656 13.039062 16.347656 13.160156 16.359375 C 13.242188 16.367188 13.324219 16.378906 13.410156 16.386719 C 13.613281 16.40625 13.8125 16.425781 14.015625 16.449219 C 13.972656 16.554688 13.929688 16.660156 13.886719 16.769531 C 14.097656 16.789062 14.308594 16.808594 14.527344 16.832031 C 14.527344 16.851562 14.527344 16.875 14.527344 16.894531 C 12.734375 16.976562 10.058594 16.820312 8.574219 15.679688 C 8.574219 15.636719 8.574219 15.59375 8.574219 15.550781 C 8.535156 15.550781 8.492188 15.550781 8.449219 15.550781 C 8.449219 15.382812 8.449219 15.214844 8.449219 15.039062 C 8.492188 15.039062 8.53125 15.039062 8.574219 15.039062 C 8.574219 14.996094 8.574219 14.957031 8.574219 14.910156 C 8.617188 14.910156 8.660156 14.910156 8.703125 14.910156 C 8.703125 14.871094 8.703125 14.828125 8.703125 14.785156 C 10.125 14.125 10.125 14.125 10.878906 14.144531 C 10.921875 14.144531 10.964844 14.144531 11.007812 14.144531 C 11.027344 14.039062 11.050781 13.933594 11.070312 13.824219 C 11.113281 13.824219 11.15625 13.824219 11.199219 13.824219 C 11.199219 13.867188 11.199219 13.910156 11.199219 13.953125 C 11.378906 13.773438 11.347656 13.597656 11.347656 13.355469 C 11.347656 13.285156 11.347656 13.285156 11.351562 13.210938 C 11.351562 13.050781 11.351562 12.894531 11.355469 12.734375 C 11.355469 12.625 11.355469 12.511719 11.359375 12.402344 C 11.363281 12.113281 11.363281 11.820312 11.367188 11.53125 C 11.367188 11.234375 11.371094 10.9375 11.375 10.640625 C 11.382812 10.058594 11.386719 9.476562 11.390625 8.894531 C 11.5625 8.808594 11.695312 8.824219 11.886719 8.824219 Z M 11.886719 8.824219 "/>
<path style=" stroke:none;fill-rule:nonzero;fill:rgb(46.27451%,76.862746%,69.803923%);fill-opacity:1;" d="M 14.191406 11.382812 C 14.261719 11.382812 14.261719 11.382812 14.339844 11.382812 C 14.394531 11.382812 14.449219 11.382812 14.507812 11.382812 C 14.566406 11.382812 14.628906 11.382812 14.691406 11.382812 C 14.757812 11.382812 14.820312 11.382812 14.886719 11.382812 C 15.101562 11.382812 15.316406 11.386719 15.527344 11.386719 C 15.675781 11.386719 15.824219 11.386719 15.972656 11.386719 C 16.359375 11.386719 16.75 11.386719 17.140625 11.386719 C 17.539062 11.386719 17.933594 11.386719 18.332031 11.390625 C 19.113281 11.390625 19.890625 11.390625 20.671875 11.390625 C 20.671875 11.414062 20.671875 11.433594 20.671875 11.457031 C 18.519531 11.457031 16.363281 11.457031 14.144531 11.457031 C 14.164062 11.519531 14.1875 11.582031 14.207031 11.648438 C 14.210938 11.808594 14.207031 11.96875 14.199219 12.128906 C 14.199219 12.175781 14.195312 12.222656 14.195312 12.269531 C 14.191406 12.417969 14.183594 12.566406 14.179688 12.714844 C 14.175781 12.816406 14.171875 12.917969 14.167969 13.019531 C 14.160156 13.265625 14.152344 13.511719 14.144531 13.761719 C 14.214844 13.761719 14.285156 13.757812 14.355469 13.757812 C 15.019531 13.757812 15.679688 13.757812 16.339844 13.757812 C 16.679688 13.757812 17.019531 13.757812 17.359375 13.753906 C 17.6875 13.753906 18.015625 13.753906 18.34375 13.753906 C 18.46875 13.753906 18.59375 13.753906 18.71875 13.753906 C 18.894531 13.753906 19.070312 13.753906 19.246094 13.753906 C 19.296875 13.753906 19.347656 13.753906 19.402344 13.753906 C 19.761719 13.753906 19.761719 13.753906 19.902344 13.824219 C 19.90625 14.09375 19.90625 14.367188 19.90625 14.636719 C 19.90625 14.730469 19.910156 14.820312 19.910156 14.914062 C 19.910156 15.046875 19.910156 15.179688 19.910156 15.3125 C 19.910156 15.390625 19.910156 15.472656 19.910156 15.554688 C 19.902344 15.742188 19.902344 15.742188 19.839844 15.871094 C 17.9375 15.871094 16.039062 15.871094 14.078125 15.871094 C 14.078125 16.0625 14.078125 16.253906 14.078125 16.449219 C 14.058594 16.449219 14.039062 16.449219 14.015625 16.449219 C 14.015625 16.214844 14.015625 15.984375 14.015625 15.742188 C 15.894531 15.722656 17.773438 15.703125 19.710938 15.679688 C 19.734375 15.089844 19.753906 14.496094 19.777344 13.886719 C 19.605469 13.886719 19.429688 13.886719 19.253906 13.890625 C 18.6875 13.890625 18.117188 13.890625 17.550781 13.890625 C 17.207031 13.890625 16.863281 13.890625 16.519531 13.894531 C 16.1875 13.894531 15.855469 13.894531 15.523438 13.894531 C 15.394531 13.894531 15.269531 13.894531 15.140625 13.894531 C 14.964844 13.894531 14.789062 13.894531 14.609375 13.894531 C 14.558594 13.894531 14.503906 13.894531 14.449219 13.894531 C 14.085938 13.894531 14.085938 13.894531 14.015625 13.824219 C 14.007812 13.648438 14.007812 13.476562 14.007812 13.300781 C 14.007812 13.25 14.007812 13.199219 14.007812 13.144531 C 14.007812 13.03125 14.007812 12.921875 14.007812 12.8125 C 14.007812 12.640625 14.007812 12.46875 14.007812 12.300781 C 14.007812 12.191406 14.007812 12.085938 14.007812 11.976562 C 14.007812 11.925781 14.007812 11.875 14.007812 11.824219 C 14.007812 11.398438 14.007812 11.398438 14.191406 11.382812 Z M 14.191406 11.382812 "/>
<path style=" stroke:none;fill-rule:nonzero;fill:rgb(22.745098%,61.960787%,51.764709%);fill-opacity:1;" d="M 8.894531 4.671875 C 10.730469 4.667969 12.5625 4.660156 14.398438 4.660156 C 14.613281 4.660156 14.832031 4.660156 15.046875 4.65625 C 15.089844 4.65625 15.132812 4.65625 15.179688 4.65625 C 15.875 4.65625 16.574219 4.65625 17.273438 4.652344 C 17.988281 4.648438 18.703125 4.648438 19.421875 4.648438 C 19.824219 4.648438 20.226562 4.648438 20.628906 4.644531 C 21.003906 4.644531 21.382812 4.644531 21.761719 4.644531 C 21.902344 4.644531 22.039062 4.640625 22.179688 4.640625 C 22.371094 4.640625 22.558594 4.640625 22.75 4.640625 C 22.804688 4.640625 22.859375 4.640625 22.914062 4.640625 C 23.277344 4.640625 23.570312 4.714844 23.871094 4.929688 C 23.933594 5.023438 23.933594 5.023438 24 5.121094 C 23.894531 5.097656 23.789062 5.078125 23.679688 5.054688 C 23.679688 5.015625 23.679688 4.972656 23.679688 4.929688 C 23.628906 4.929688 23.578125 4.929688 23.523438 4.933594 C 23.359375 4.929688 23.359375 4.929688 23.296875 4.863281 C 23.121094 4.855469 22.949219 4.855469 22.773438 4.855469 C 22.71875 4.855469 22.664062 4.855469 22.605469 4.851562 C 22.417969 4.851562 22.230469 4.851562 22.042969 4.851562 C 21.910156 4.851562 21.773438 4.851562 21.640625 4.851562 C 21.351562 4.847656 21.0625 4.847656 20.773438 4.847656 C 20.316406 4.847656 19.859375 4.84375 19.402344 4.84375 C 18.429688 4.839844 17.460938 4.835938 16.488281 4.832031 C 15.441406 4.828125 14.394531 4.824219 13.347656 4.820312 C 12.894531 4.820312 12.441406 4.816406 11.984375 4.816406 C 11.703125 4.816406 11.417969 4.8125 11.136719 4.8125 C 11.003906 4.8125 10.875 4.8125 10.742188 4.8125 C 9.472656 4.808594 9.472656 4.808594 8.894531 4.734375 C 8.894531 4.714844 8.894531 4.695312 8.894531 4.671875 Z M 8.894531 4.671875 "/>
<path style=" stroke:none;fill-rule:nonzero;fill:rgb(31.764707%,70.980394%,61.176473%);fill-opacity:1;" d="M 11.648438 16.191406 C 12.820312 16.320312 12.820312 16.320312 14.015625 16.449219 C 13.972656 16.554688 13.929688 16.660156 13.886719 16.769531 C 14.097656 16.789062 14.308594 16.808594 14.527344 16.832031 C 14.527344 16.851562 14.527344 16.875 14.527344 16.894531 C 13.503906 16.941406 12.464844 16.8125 11.457031 16.640625 C 11.457031 16.597656 11.457031 16.554688 11.457031 16.511719 C 11.5625 16.511719 11.667969 16.511719 11.777344 16.511719 C 11.734375 16.40625 11.691406 16.300781 11.648438 16.191406 Z M 11.648438 16.191406 "/>
<path style=" stroke:none;fill-rule:nonzero;fill:rgb(47.450981%,79.215688%,69.411767%);fill-opacity:1;" d="M 14.191406 11.382812 C 14.261719 11.382812 14.261719 11.382812 14.339844 11.382812 C 14.394531 11.382812 14.449219 11.382812 14.507812 11.382812 C 14.566406 11.382812 14.628906 11.382812 14.691406 11.382812 C 14.757812 11.382812 14.820312 11.382812 14.886719 11.382812 C 15.101562 11.382812 15.316406 11.386719 15.527344 11.386719 C 15.675781 11.386719 15.824219 11.386719 15.972656 11.386719 C 16.359375 11.386719 16.75 11.386719 17.140625 11.386719 C 17.539062 11.386719 17.933594 11.386719 18.332031 11.390625 C 19.113281 11.390625 19.890625 11.390625 20.671875 11.390625 C 20.671875 11.414062 20.671875 11.433594 20.671875 11.457031 C 18.519531 11.457031 16.363281 11.457031 14.144531 11.457031 C 14.164062 11.519531 14.1875 11.582031 14.207031 11.648438 C 14.210938 11.808594 14.207031 11.96875 14.199219 12.128906 C 14.199219 12.175781 14.195312 12.222656 14.195312 12.269531 C 14.191406 12.417969 14.183594 12.566406 14.179688 12.714844 C 14.175781 12.816406 14.171875 12.917969 14.167969 13.019531 C 14.160156 13.265625 14.152344 13.511719 14.144531 13.761719 C 14.082031 13.792969 14.082031 13.792969 14.015625 13.824219 C 14.015625 13.488281 14.011719 13.152344 14.011719 12.816406 C 14.011719 12.703125 14.011719 12.585938 14.011719 12.472656 C 14.011719 12.308594 14.011719 12.144531 14.007812 11.980469 C 14.007812 11.929688 14.007812 11.878906 14.007812 11.824219 C 14.007812 11.703125 14.011719 11.578125 14.015625 11.457031 C 14.078125 11.390625 14.078125 11.390625 14.191406 11.382812 Z M 14.191406 11.382812 "/>
<path style=" stroke:none;fill-rule:nonzero;fill:rgb(41.568628%,70.19608%,62.7451%);fill-opacity:1;" d="M 11.648438 21.441406 C 11.699219 21.457031 11.699219 21.457031 11.753906 21.472656 C 11.929688 21.507812 12.089844 21.511719 12.273438 21.511719 C 12.386719 21.511719 12.386719 21.511719 12.5 21.511719 C 12.582031 21.511719 12.664062 21.511719 12.75 21.511719 C 12.835938 21.511719 12.925781 21.511719 13.011719 21.511719 C 13.25 21.511719 13.488281 21.511719 13.726562 21.511719 C 13.976562 21.511719 14.222656 21.511719 14.472656 21.511719 C 14.941406 21.511719 15.414062 21.507812 15.882812 21.507812 C 16.421875 21.507812 16.957031 21.507812 17.492188 21.507812 C 18.59375 21.507812 19.699219 21.503906 20.800781 21.503906 C 20.777344 21.546875 20.757812 21.589844 20.734375 21.632812 C 17.757812 21.632812 14.78125 21.632812 11.710938 21.632812 C 11.691406 21.570312 11.667969 21.503906 11.648438 21.441406 Z M 11.648438 21.441406 "/>
<path style=" stroke:none;fill-rule:nonzero;fill:rgb(33.333334%,71.372551%,61.960787%);fill-opacity:1;" d="M 11.023438 24.171875 C 11.136719 24.320312 11.136719 24.320312 11.136719 24.574219 C 11.195312 24.597656 11.257812 24.617188 11.320312 24.636719 C 11.519531 24.703125 11.519531 24.703125 11.648438 24.769531 C 11.675781 24.917969 11.695312 25.066406 11.710938 25.214844 C 11.816406 25.195312 11.921875 25.171875 12.03125 25.152344 C 12.042969 25.199219 12.050781 25.246094 12.058594 25.296875 C 12.089844 25.441406 12.121094 25.585938 12.160156 25.726562 C 12.265625 25.75 12.371094 25.769531 12.480469 25.792969 C 12.5 25.875 12.523438 25.960938 12.542969 26.046875 C 12.351562 26.046875 12.351562 26.046875 12.179688 25.894531 C 12.03125 25.726562 12.03125 25.726562 12.03125 25.601562 C 11.988281 25.601562 11.949219 25.601562 11.902344 25.601562 C 11.792969 25.492188 11.792969 25.492188 11.671875 25.351562 C 11.632812 25.304688 11.589844 25.261719 11.550781 25.210938 C 11.457031 25.089844 11.457031 25.089844 11.457031 24.960938 C 11.414062 24.960938 11.371094 24.960938 11.328125 24.960938 C 11.226562 24.859375 11.226562 24.859375 11.113281 24.722656 C 11.050781 24.65625 11.050781 24.65625 10.992188 24.582031 C 10.867188 24.433594 10.746094 24.28125 10.625 24.128906 C 10.8125 24.046875 10.855469 24.046875 11.023438 24.171875 Z M 11.023438 24.171875 "/>
<path style=" stroke:none;fill-rule:nonzero;fill:rgb(40.000001%,73.333335%,65.098041%);fill-opacity:1;" d="M 17.472656 28.097656 C 17.554688 28.117188 17.640625 28.136719 17.726562 28.160156 C 17.640625 28.289062 17.640625 28.289062 17.535156 28.414062 C 17.492188 28.414062 17.453125 28.414062 17.40625 28.414062 C 17.40625 28.457031 17.40625 28.5 17.40625 28.542969 C 17.289062 28.605469 17.167969 28.667969 17.046875 28.730469 C 16.980469 28.765625 16.914062 28.800781 16.84375 28.835938 C 16.308594 29.074219 15.78125 29.019531 15.230469 28.863281 C 15.230469 28.84375 15.230469 28.820312 15.230469 28.800781 C 15.269531 28.796875 15.308594 28.796875 15.351562 28.796875 C 15.527344 28.789062 15.707031 28.78125 15.882812 28.777344 C 15.976562 28.773438 15.976562 28.773438 16.070312 28.769531 C 16.128906 28.765625 16.1875 28.765625 16.25 28.761719 C 16.332031 28.757812 16.332031 28.757812 16.417969 28.757812 C 16.59375 28.734375 16.730469 28.675781 16.894531 28.609375 C 16.980469 28.609375 17.066406 28.609375 17.152344 28.609375 C 17.171875 28.480469 17.195312 28.355469 17.214844 28.222656 C 17.300781 28.222656 17.386719 28.222656 17.472656 28.222656 C 17.472656 28.183594 17.472656 28.140625 17.472656 28.097656 Z M 17.472656 28.097656 "/>
<path style=" stroke:none;fill-rule:nonzero;fill:rgb(20%,64.705884%,52.941179%);fill-opacity:1;" d="M 11.648438 8.832031 C 11.625 8.894531 11.605469 8.957031 11.585938 9.023438 C 11.542969 9.023438 11.5 9.023438 11.457031 9.023438 C 11.457031 10.734375 11.457031 12.445312 11.457031 14.207031 C 11.433594 14.207031 11.414062 14.207031 11.390625 14.207031 C 11.332031 13.910156 11.320312 13.628906 11.328125 13.328125 C 11.328125 13.28125 11.328125 13.230469 11.328125 13.183594 C 11.332031 13.023438 11.332031 12.867188 11.335938 12.707031 C 11.335938 12.597656 11.339844 12.488281 11.339844 12.378906 C 11.34375 12.089844 11.347656 11.800781 11.351562 11.511719 C 11.359375 11.21875 11.363281 10.921875 11.367188 10.628906 C 11.375 10.050781 11.382812 9.472656 11.390625 8.894531 C 11.519531 8.832031 11.519531 8.832031 11.648438 8.832031 Z M 11.648438 8.832031 "/>
<path style=" stroke:none;fill-rule:nonzero;fill:rgb(33.333334%,72.549021%,62.7451%);fill-opacity:1;" d="M 3.457031 13.441406 C 3.511719 13.59375 3.535156 13.667969 3.464844 13.820312 C 3.441406 13.863281 3.417969 13.90625 3.390625 13.953125 C 3.382812 14.003906 3.375 14.054688 3.367188 14.109375 C 3.316406 14.316406 3.207031 14.425781 3.070312 14.59375 C 2.960938 14.863281 2.914062 15.132812 2.878906 15.425781 C 2.921875 15.425781 2.964844 15.425781 3.007812 15.425781 C 3.007812 15.53125 3.007812 15.636719 3.007812 15.742188 C 3.050781 15.765625 3.09375 15.785156 3.136719 15.808594 C 3.074219 15.808594 3.007812 15.808594 2.945312 15.808594 C 2.757812 15.398438 2.710938 14.953125 2.863281 14.519531 C 3.03125 14.144531 3.226562 13.78125 3.457031 13.441406 Z M 3.457031 13.441406 "/>
<path style=" stroke:none;fill-rule:nonzero;fill:rgb(32.549021%,70.588237%,61.56863%);fill-opacity:1;" d="M 22.847656 22.335938 C 22.867188 22.398438 22.890625 22.460938 22.910156 22.527344 C 22.863281 22.582031 22.8125 22.636719 22.761719 22.691406 C 22.695312 22.761719 22.628906 22.832031 22.5625 22.902344 C 22.53125 22.941406 22.496094 22.976562 22.464844 23.011719 C 22.285156 23.203125 22.285156 23.203125 22.144531 23.425781 C 22.101562 23.425781 22.058594 23.425781 22.015625 23.425781 C 22.015625 23.464844 22.015625 23.507812 22.015625 23.550781 C 21.972656 23.550781 21.929688 23.550781 21.886719 23.550781 C 21.824219 23.425781 21.761719 23.296875 21.695312 23.167969 C 21.78125 23.125 21.863281 23.082031 21.953125 23.039062 C 21.972656 23.082031 21.996094 23.125 22.015625 23.167969 C 22.101562 23.148438 22.183594 23.125 22.273438 23.105469 C 22.292969 23 22.3125 22.894531 22.335938 22.785156 C 22.378906 22.785156 22.421875 22.785156 22.464844 22.785156 C 22.46875 22.707031 22.46875 22.707031 22.476562 22.632812 C 22.492188 22.578125 22.511719 22.519531 22.527344 22.464844 C 22.691406 22.378906 22.691406 22.378906 22.847656 22.335938 Z M 22.847656 22.335938 "/>
<path style=" stroke:none;fill-rule:nonzero;fill:rgb(41.176471%,75.294119%,65.490198%);fill-opacity:1;" d="M 4.351562 11.839844 C 4.375 11.839844 4.394531 11.839844 4.414062 11.839844 C 4.394531 12.007812 4.375 12.179688 4.351562 12.351562 C 4.289062 12.375 4.226562 12.394531 4.160156 12.414062 C 4.082031 12.609375 4.082031 12.609375 4.03125 12.800781 C 3.988281 12.800781 3.949219 12.800781 3.902344 12.800781 C 3.925781 12.925781 3.945312 13.054688 3.96875 13.183594 C 3.863281 13.226562 3.757812 13.269531 3.648438 13.3125 C 3.648438 13.355469 3.648438 13.394531 3.648438 13.441406 C 3.605469 13.441406 3.5625 13.441406 3.519531 13.441406 C 3.605469 13.160156 3.714844 12.925781 3.863281 12.675781 C 3.902344 12.609375 3.941406 12.542969 3.984375 12.476562 C 4.039062 12.382812 4.039062 12.382812 4.097656 12.289062 C 4.183594 12.140625 4.265625 11.988281 4.351562 11.839844 Z M 4.351562 11.839844 "/>
<path style=" stroke:none;fill-rule:nonzero;fill:rgb(39.215687%,70.19608%,62.7451%);fill-opacity:1;" d="M 14.015625 11.519531 C 14.078125 11.542969 14.144531 11.5625 14.207031 11.585938 C 14.1875 12.300781 14.164062 13.019531 14.144531 13.761719 C 14.082031 13.792969 14.082031 13.792969 14.015625 13.824219 C 14.015625 13.0625 14.015625 12.304688 14.015625 11.519531 Z M 14.015625 11.519531 "/>
<path style=" stroke:none;fill-rule:nonzero;fill:rgb(22.352941%,66.274512%,54.509807%);fill-opacity:1;" d="M 23.9375 4.992188 C 23.96875 5.054688 23.96875 5.054688 24 5.121094 C 23.839844 5.089844 23.839844 5.089844 23.679688 5.054688 C 23.679688 5.015625 23.679688 4.972656 23.679688 4.929688 C 23.628906 4.929688 23.578125 4.929688 23.523438 4.933594 C 23.359375 4.929688 23.359375 4.929688 23.296875 4.863281 C 23.117188 4.855469 22.9375 4.847656 22.757812 4.84375 C 22.703125 4.84375 22.648438 4.839844 22.59375 4.839844 C 22.421875 4.835938 22.25 4.832031 22.074219 4.828125 C 21.960938 4.824219 21.84375 4.824219 21.726562 4.820312 C 21.4375 4.8125 21.152344 4.804688 20.863281 4.800781 C 20.863281 4.777344 20.863281 4.757812 20.863281 4.734375 C 21.164062 4.726562 21.464844 4.714844 21.765625 4.707031 C 21.867188 4.703125 21.96875 4.699219 22.070312 4.695312 C 22.21875 4.6875 22.367188 4.683594 22.515625 4.679688 C 22.558594 4.679688 22.605469 4.675781 22.648438 4.675781 C 23.136719 4.660156 23.539062 4.671875 23.9375 4.992188 Z M 23.9375 4.992188 "/>
<path style=" stroke:none;fill-rule:nonzero;fill:rgb(32.156864%,70.588237%,61.176473%);fill-opacity:1;" d="M 23.167969 14.910156 C 23.210938 14.910156 23.253906 14.910156 23.296875 14.910156 C 23.296875 14.953125 23.296875 14.996094 23.296875 15.039062 C 23.339844 15.039062 23.378906 15.039062 23.425781 15.039062 C 23.449219 15.308594 23.457031 15.441406 23.292969 15.664062 C 23.082031 15.824219 22.902344 15.910156 22.65625 16 C 22.65625 15.9375 22.65625 15.875 22.65625 15.808594 C 22.847656 15.679688 22.847656 15.679688 23.105469 15.679688 C 23.105469 15.617188 23.105469 15.554688 23.105469 15.488281 C 23.039062 15.46875 22.976562 15.445312 22.910156 15.425781 C 22.976562 15.359375 23.039062 15.296875 23.105469 15.230469 C 23.167969 15.253906 23.230469 15.273438 23.296875 15.296875 C 23.296875 15.253906 23.296875 15.210938 23.296875 15.167969 C 23.253906 15.167969 23.210938 15.167969 23.167969 15.167969 C 23.167969 15.082031 23.167969 15 23.167969 14.910156 Z M 23.167969 14.910156 "/>
<path style=" stroke:none;fill-rule:nonzero;fill:rgb(25.882354%,69.803923%,58.039218%);fill-opacity:1;" d="M 8.449219 15.296875 C 8.53125 15.316406 8.617188 15.339844 8.703125 15.359375 C 8.703125 15.402344 8.703125 15.445312 8.703125 15.488281 C 8.832031 15.46875 8.957031 15.445312 9.089844 15.425781 C 9.222656 15.785156 9.222656 15.785156 9.152344 16 C 8.960938 15.894531 8.773438 15.789062 8.574219 15.679688 C 8.574219 15.636719 8.574219 15.59375 8.574219 15.550781 C 8.535156 15.550781 8.492188 15.550781 8.449219 15.550781 C 8.449219 15.46875 8.449219 15.382812 8.449219 15.296875 Z M 8.449219 15.296875 "/>
<path style=" stroke:none;fill-rule:nonzero;fill:rgb(35.294119%,73.725492%,64.313728%);fill-opacity:1;" d="M 24.257812 15.359375 C 24.277344 15.359375 24.296875 15.359375 24.320312 15.359375 C 24.324219 15.40625 24.328125 15.449219 24.328125 15.496094 C 24.335938 15.554688 24.339844 15.617188 24.34375 15.675781 C 24.347656 15.734375 24.351562 15.792969 24.359375 15.855469 C 24.367188 15.902344 24.375 15.949219 24.382812 16 C 24.425781 16.019531 24.46875 16.042969 24.511719 16.0625 C 24.511719 16.105469 24.511719 16.148438 24.511719 16.191406 C 24.421875 16.226562 24.328125 16.261719 24.234375 16.296875 C 24.183594 16.316406 24.132812 16.335938 24.082031 16.355469 C 24.03125 16.363281 23.984375 16.375 23.9375 16.382812 C 23.871094 16.339844 23.808594 16.300781 23.742188 16.257812 C 23.804688 16.203125 23.867188 16.152344 23.929688 16.097656 C 24.15625 15.871094 24.203125 15.671875 24.257812 15.359375 Z M 24.257812 15.359375 "/>
<path style=" stroke:none;fill-rule:nonzero;fill:rgb(39.215687%,75.294119%,65.882355%);fill-opacity:1;" d="M 23.617188 16.320312 C 23.660156 16.339844 23.699219 16.363281 23.742188 16.382812 C 23.652344 16.679688 23.652344 16.679688 23.492188 16.792969 C 23.359375 16.832031 23.359375 16.832031 23.167969 16.769531 C 23.109375 16.796875 23.050781 16.828125 22.992188 16.859375 C 22.753906 16.972656 22.59375 16.976562 22.335938 16.960938 C 22.503906 16.847656 22.644531 16.78125 22.832031 16.710938 C 23.042969 16.632812 23.230469 16.542969 23.425781 16.429688 C 23.488281 16.390625 23.550781 16.355469 23.617188 16.320312 Z M 23.617188 16.320312 "/>
<path style=" stroke:none;fill-rule:nonzero;fill:rgb(29.803923%,71.764708%,60.784316%);fill-opacity:1;" d="M 7.742188 5.503906 C 7.808594 5.546875 7.871094 5.589844 7.9375 5.632812 C 8 5.652344 8.0625 5.675781 8.128906 5.695312 C 8.089844 5.816406 8.089844 5.816406 8 5.953125 C 7.871094 5.996094 7.746094 6.039062 7.617188 6.078125 C 7.59375 6.144531 7.574219 6.207031 7.550781 6.273438 C 7.488281 6.292969 7.425781 6.3125 7.359375 6.335938 C 7.449219 6.027344 7.578125 5.777344 7.742188 5.503906 Z M 7.742188 5.503906 "/>
<path style=" stroke:none;fill-rule:nonzero;fill:rgb(34.901962%,73.333335%,63.529414%);fill-opacity:1;" d="M 21.503906 23.550781 C 21.695312 23.582031 21.695312 23.582031 21.886719 23.617188 C 21.664062 23.882812 21.433594 24.140625 21.183594 24.382812 C 21.164062 24.300781 21.140625 24.214844 21.121094 24.128906 C 21.164062 24.128906 21.203125 24.128906 21.246094 24.128906 C 21.246094 24.042969 21.246094 23.960938 21.246094 23.871094 C 21.3125 23.828125 21.375 23.789062 21.441406 23.742188 C 21.460938 23.679688 21.480469 23.617188 21.503906 23.550781 Z M 21.503906 23.550781 "/>
<path style=" stroke:none;fill-rule:nonzero;fill:rgb(40.784314%,72.941178%,65.098041%);fill-opacity:1;" d="M 28.734375 15.9375 C 28.800781 15.957031 28.863281 15.976562 28.929688 16 C 28.882812 16.050781 28.835938 16.097656 28.789062 16.148438 C 28.730469 16.214844 28.671875 16.277344 28.613281 16.34375 C 28.582031 16.375 28.550781 16.410156 28.519531 16.441406 C 28.351562 16.625 28.351562 16.625 28.222656 16.832031 C 28.183594 16.832031 28.140625 16.832031 28.097656 16.832031 C 28.074219 16.875 28.054688 16.917969 28.03125 16.960938 C 28.03125 16.8125 28.03125 16.664062 28.03125 16.511719 C 28.074219 16.503906 28.113281 16.5 28.15625 16.492188 C 28.222656 16.46875 28.222656 16.46875 28.289062 16.449219 C 28.308594 16.382812 28.332031 16.320312 28.351562 16.257812 C 28.4375 16.257812 28.519531 16.257812 28.609375 16.257812 C 28.609375 16.191406 28.609375 16.128906 28.609375 16.0625 C 28.648438 16.0625 28.691406 16.0625 28.734375 16.0625 C 28.734375 16.023438 28.734375 15.980469 28.734375 15.9375 Z M 28.734375 15.9375 "/>
<path style=" stroke:none;fill-rule:nonzero;fill:rgb(40.000001%,76.078433%,66.274512%);fill-opacity:1;" d="M 11.648438 16.191406 C 12.050781 16.234375 12.449219 16.277344 12.863281 16.320312 C 12.863281 16.339844 12.863281 16.363281 12.863281 16.382812 C 12.785156 16.390625 12.785156 16.390625 12.703125 16.394531 C 12.601562 16.402344 12.601562 16.402344 12.496094 16.410156 C 12.394531 16.417969 12.394531 16.417969 12.289062 16.429688 C 12.132812 16.445312 11.992188 16.46875 11.839844 16.511719 C 11.839844 16.554688 11.839844 16.597656 11.839844 16.640625 C 11.714844 16.640625 11.585938 16.640625 11.457031 16.640625 C 11.457031 16.597656 11.457031 16.554688 11.457031 16.511719 C 11.5625 16.511719 11.667969 16.511719 11.777344 16.511719 C 11.734375 16.40625 11.691406 16.300781 11.648438 16.191406 Z M 11.648438 16.191406 "/>
<path style=" stroke:none;fill-rule:nonzero;fill:rgb(45.09804%,76.47059%,68.627453%);fill-opacity:1;" d="M 9.214844 16.832031 C 9.734375 16.941406 10.242188 17.078125 10.753906 17.214844 C 10.753906 17.238281 10.753906 17.257812 10.753906 17.28125 C 10.433594 17.289062 10.144531 17.261719 9.832031 17.195312 C 9.753906 17.179688 9.675781 17.164062 9.59375 17.148438 C 9.53125 17.128906 9.472656 17.109375 9.40625 17.089844 C 9.386719 17.023438 9.367188 16.960938 9.34375 16.894531 C 9.300781 16.875 9.257812 16.855469 9.214844 16.832031 Z M 9.214844 16.832031 "/>
<path style=" stroke:none;fill-rule:nonzero;fill:rgb(20.392157%,64.705884%,52.549022%);fill-opacity:1;" d="M 12.160156 16.449219 C 12.25 16.441406 12.34375 16.4375 12.4375 16.4375 C 12.511719 16.433594 12.511719 16.433594 12.589844 16.429688 C 12.769531 16.453125 12.808594 16.507812 12.929688 16.640625 C 13.0625 16.714844 13.0625 16.714844 13.183594 16.769531 C 13.050781 16.761719 12.914062 16.753906 12.78125 16.746094 C 12.667969 16.742188 12.667969 16.742188 12.554688 16.738281 C 12.351562 16.703125 12.351562 16.703125 12.230469 16.609375 C 12.160156 16.511719 12.160156 16.511719 12.160156 16.449219 Z M 12.160156 16.449219 "/>
<path style=" stroke:none;fill-rule:nonzero;fill:rgb(41.568628%,74.509805%,67.058825%);fill-opacity:1;" d="M 19.546875 16.558594 C 19.601562 16.558594 19.65625 16.558594 19.714844 16.558594 C 19.769531 16.5625 19.824219 16.5625 19.882812 16.5625 C 19.941406 16.566406 20 16.566406 20.058594 16.566406 C 20.199219 16.570312 20.339844 16.570312 20.480469 16.574219 C 20.480469 16.597656 20.480469 16.617188 20.480469 16.640625 C 20.003906 16.722656 19.554688 16.785156 19.070312 16.769531 C 19.222656 16.585938 19.3125 16.550781 19.546875 16.558594 Z M 19.546875 16.558594 "/>
<path style=" stroke:none;fill-rule:nonzero;fill:rgb(36.862746%,71.764708%,63.529414%);fill-opacity:1;" d="M 18.046875 27.328125 C 18.195312 27.328125 18.34375 27.328125 18.496094 27.328125 C 18.40625 27.457031 18.40625 27.457031 18.304688 27.585938 C 18.261719 27.585938 18.21875 27.585938 18.175781 27.585938 C 18.160156 27.621094 18.144531 27.660156 18.128906 27.699219 C 18.039062 27.859375 17.941406 27.933594 17.792969 28.03125 C 17.769531 27.96875 17.75 27.90625 17.726562 27.839844 C 17.769531 27.839844 17.8125 27.839844 17.855469 27.839844 C 17.855469 27.796875 17.855469 27.753906 17.855469 27.710938 C 17.898438 27.691406 17.941406 27.667969 17.984375 27.648438 C 18.027344 27.484375 18.027344 27.484375 18.046875 27.328125 Z M 18.046875 27.328125 "/>
<path style=" stroke:none;fill-rule:nonzero;fill:rgb(44.705883%,75.294119%,67.843139%);fill-opacity:1;" d="M 2.945312 14.335938 C 2.964844 14.335938 2.984375 14.335938 3.007812 14.335938 C 3.023438 14.714844 2.964844 15.054688 2.878906 15.425781 C 2.921875 15.425781 2.964844 15.425781 3.007812 15.425781 C 3.007812 15.53125 3.007812 15.636719 3.007812 15.742188 C 3.050781 15.765625 3.09375 15.785156 3.136719 15.808594 C 3.074219 15.808594 3.007812 15.808594 2.945312 15.808594 C 2.824219 15.554688 2.796875 15.351562 2.800781 15.070312 C 2.800781 15 2.800781 14.929688 2.800781 14.859375 C 2.816406 14.660156 2.859375 14.515625 2.945312 14.335938 Z M 2.945312 14.335938 "/>
<path style=" stroke:none;fill-rule:nonzero;fill:rgb(31.764707%,69.411767%,60.000002%);fill-opacity:1;" d="M 15.167969 28.222656 C 15.25 28.386719 15.214844 28.4375 15.167969 28.609375 C 15.167969 28.671875 15.167969 28.734375 15.167969 28.800781 C 14.917969 28.714844 14.769531 28.613281 14.59375 28.414062 C 14.628906 28.40625 14.664062 28.398438 14.703125 28.390625 C 14.773438 28.375 14.773438 28.375 14.84375 28.355469 C 14.890625 28.34375 14.9375 28.332031 14.984375 28.320312 C 15.105469 28.296875 15.105469 28.296875 15.167969 28.222656 Z M 15.167969 28.222656 "/>
<path style=" stroke:none;fill-rule:nonzero;fill:rgb(32.549021%,71.764708%,61.960787%);fill-opacity:1;" d="M 25.214844 7.359375 C 25.394531 7.449219 25.425781 7.5625 25.511719 7.738281 C 25.539062 7.796875 25.570312 7.855469 25.597656 7.914062 C 25.664062 8.0625 25.664062 8.0625 25.664062 8.191406 C 25.578125 8.191406 25.496094 8.191406 25.40625 8.191406 C 25.386719 8.171875 25.367188 8.148438 25.34375 8.128906 C 25.28125 8.085938 25.21875 8.042969 25.152344 8 C 25.171875 7.9375 25.195312 7.875 25.214844 7.808594 C 25.257812 7.828125 25.300781 7.851562 25.34375 7.871094 C 25.300781 7.703125 25.257812 7.535156 25.214844 7.359375 Z M 25.214844 7.359375 "/>
<path style=" stroke:none;fill-rule:nonzero;fill:rgb(36.862746%,70.980394%,62.352943%);fill-opacity:1;" d="M 22.785156 14.144531 C 22.785156 14.1875 22.785156 14.226562 22.785156 14.273438 C 22.890625 14.273438 22.996094 14.273438 23.105469 14.273438 C 23.082031 14.3125 23.0625 14.355469 23.039062 14.398438 C 22.46875 14.273438 22.46875 14.273438 21.886719 14.144531 C 21.886719 14.121094 21.886719 14.101562 21.886719 14.078125 C 22.234375 14.019531 22.453125 14.003906 22.785156 14.144531 Z M 22.785156 14.144531 "/>
<path style=" stroke:none;fill-rule:nonzero;fill:rgb(34.509805%,72.156864%,62.7451%);fill-opacity:1;" d="M 6.59375 19.710938 C 6.738281 19.710938 6.886719 19.710938 7.039062 19.710938 C 7.046875 19.761719 7.054688 19.8125 7.0625 19.863281 C 7.089844 20.039062 7.089844 20.039062 7.230469 20.160156 C 7.167969 20.253906 7.167969 20.253906 7.105469 20.351562 C 7.019531 20.257812 6.933594 20.164062 6.847656 20.066406 C 6.800781 20.015625 6.753906 19.960938 6.703125 19.910156 C 6.59375 19.777344 6.59375 19.777344 6.59375 19.710938 Z M 6.59375 19.710938 "/>
<path style=" stroke:none;fill-rule:nonzero;fill:rgb(40.392157%,75.294119%,67.058825%);fill-opacity:1;" d="M 7.9375 14.527344 C 7.957031 14.570312 7.976562 14.613281 8 14.65625 C 8.085938 14.65625 8.167969 14.65625 8.257812 14.65625 C 8.257812 14.613281 8.257812 14.570312 8.257812 14.527344 C 8.320312 14.550781 8.382812 14.570312 8.449219 14.59375 C 8.222656 14.777344 7.988281 14.945312 7.742188 15.105469 C 7.742188 15 7.742188 14.894531 7.742188 14.785156 C 7.808594 14.761719 7.871094 14.742188 7.9375 14.71875 C 7.9375 14.65625 7.9375 14.59375 7.9375 14.527344 Z M 7.9375 14.527344 "/>
<path style=" stroke:none;fill-rule:nonzero;fill:rgb(42.352942%,75.294119%,67.843139%);fill-opacity:1;" d="M 20.863281 13.824219 C 21.179688 13.84375 21.496094 13.867188 21.824219 13.886719 C 21.84375 13.953125 21.867188 14.015625 21.886719 14.078125 C 21.753906 14.058594 21.617188 14.039062 21.480469 14.019531 C 21.367188 14.003906 21.367188 14.003906 21.25 13.984375 C 21.054688 13.953125 21.054688 13.953125 20.929688 13.886719 C 20.90625 13.953125 20.886719 14.015625 20.863281 14.078125 C 20.863281 13.996094 20.863281 13.910156 20.863281 13.824219 Z M 20.863281 13.824219 "/>
<path style=" stroke:none;fill-rule:nonzero;fill:rgb(38.039216%,73.333335%,64.313728%);fill-opacity:1;" d="M 24.769531 20.542969 C 24.695312 20.628906 24.625 20.714844 24.550781 20.800781 C 24.511719 20.847656 24.472656 20.894531 24.429688 20.945312 C 24.375 21 24.375 21 24.320312 21.054688 C 24.277344 21.054688 24.234375 21.054688 24.191406 21.054688 C 24.171875 21.097656 24.148438 21.140625 24.128906 21.183594 C 24.128906 21.097656 24.128906 21.015625 24.128906 20.929688 C 24.171875 20.929688 24.210938 20.929688 24.257812 20.929688 C 24.269531 20.867188 24.269531 20.867188 24.285156 20.808594 C 24.320312 20.671875 24.320312 20.671875 24.382812 20.542969 C 24.574219 20.480469 24.574219 20.480469 24.769531 20.542969 Z M 24.769531 20.542969 "/>
<path style=" stroke:none;fill-rule:nonzero;fill:rgb(34.901962%,72.156864%,62.352943%);fill-opacity:1;" d="M 4.222656 17.152344 C 4.402344 17.183594 4.566406 17.222656 4.734375 17.28125 C 4.800781 17.472656 4.800781 17.472656 4.738281 17.613281 C 4.707031 17.667969 4.707031 17.667969 4.671875 17.726562 C 4.597656 17.644531 4.523438 17.558594 4.449219 17.476562 C 4.40625 17.429688 4.363281 17.382812 4.320312 17.335938 C 4.222656 17.214844 4.222656 17.214844 4.222656 17.152344 Z M 4.222656 17.152344 "/>
<path style=" stroke:none;fill-rule:nonzero;fill:rgb(37.64706%,72.941178%,63.529414%);fill-opacity:1;" d="M 28.351562 13.121094 C 28.800781 13.71875 28.800781 13.71875 28.800781 13.953125 C 28.757812 13.953125 28.714844 13.953125 28.671875 13.953125 C 28.652344 13.910156 28.628906 13.867188 28.609375 13.824219 C 28.542969 13.804688 28.480469 13.78125 28.414062 13.761719 C 28.394531 13.546875 28.375 13.335938 28.351562 13.121094 Z M 28.351562 13.121094 "/>
<path style=" stroke:none;fill-rule:nonzero;fill:rgb(27.058825%,69.01961%,58.039218%);fill-opacity:1;" d="M 21.886719 23.039062 C 22.015625 23.125 22.015625 23.125 22.144531 23.230469 C 22.144531 23.296875 22.144531 23.359375 22.144531 23.425781 C 22.101562 23.425781 22.058594 23.425781 22.015625 23.425781 C 22.015625 23.464844 22.015625 23.507812 22.015625 23.550781 C 21.972656 23.550781 21.929688 23.550781 21.886719 23.550781 C 21.824219 23.425781 21.761719 23.296875 21.695312 23.167969 C 21.757812 23.125 21.824219 23.082031 21.886719 23.039062 Z M 21.886719 23.039062 "/>
<path style=" stroke:none;fill-rule:nonzero;fill:rgb(45.09804%,76.862746%,68.627453%);fill-opacity:1;" d="M 10.175781 16.191406 C 10.21875 16.214844 10.261719 16.234375 10.304688 16.257812 C 10.394531 16.265625 10.488281 16.277344 10.578125 16.285156 C 10.808594 16.308594 10.992188 16.347656 11.199219 16.449219 C 11.199219 16.46875 11.199219 16.492188 11.199219 16.511719 C 10.789062 16.539062 10.4375 16.4375 10.046875 16.320312 C 10.089844 16.277344 10.132812 16.234375 10.175781 16.191406 Z M 10.175781 16.191406 "/>
<path style=" stroke:none;fill-rule:nonzero;fill:rgb(39.607844%,73.725492%,64.705884%);fill-opacity:1;" d="M 20.929688 14.078125 C 21.273438 14.125 21.613281 14.191406 21.953125 14.273438 C 21.953125 14.292969 21.953125 14.3125 21.953125 14.335938 C 21.621094 14.339844 21.316406 14.328125 20.992188 14.273438 C 20.972656 14.207031 20.949219 14.144531 20.929688 14.078125 Z M 20.929688 14.078125 "/>
<path style=" stroke:none;fill-rule:nonzero;fill:rgb(35.294119%,73.333335%,63.529414%);fill-opacity:1;" d="M 8.191406 4.929688 C 8.214844 4.96875 8.234375 5.011719 8.257812 5.054688 C 8.296875 5.078125 8.339844 5.097656 8.382812 5.121094 C 8.3125 5.183594 8.242188 5.25 8.167969 5.3125 C 8.128906 5.347656 8.085938 5.382812 8.046875 5.421875 C 7.9375 5.503906 7.9375 5.503906 7.808594 5.503906 C 7.890625 5.253906 7.996094 5.105469 8.191406 4.929688 Z M 8.191406 4.929688 "/>
<path style=" stroke:none;fill-rule:nonzero;fill:rgb(40.000001%,74.901962%,65.490198%);fill-opacity:1;" d="M 26.113281 9.023438 C 26.289062 9.230469 26.410156 9.410156 26.496094 9.664062 C 26.433594 9.695312 26.433594 9.695312 26.367188 9.726562 C 26.367188 9.6875 26.367188 9.644531 26.367188 9.601562 C 26.304688 9.621094 26.242188 9.640625 26.175781 9.664062 C 26.136719 9.445312 26.113281 9.25 26.113281 9.023438 Z M 26.113281 9.023438 "/>
<path style=" stroke:none;fill-rule:nonzero;fill:rgb(38.431373%,73.725492%,64.705884%);fill-opacity:1;" d="M 12.929688 26.625 C 13.011719 26.625 13.097656 26.625 13.183594 26.625 C 13.183594 26.6875 13.183594 26.75 13.183594 26.816406 C 13.226562 26.816406 13.269531 26.816406 13.3125 26.816406 C 13.3125 26.859375 13.3125 26.902344 13.3125 26.945312 C 13.355469 26.945312 13.394531 26.945312 13.441406 26.945312 C 13.480469 27.070312 13.523438 27.199219 13.566406 27.328125 C 13.285156 27.125 13.121094 26.910156 12.929688 26.625 Z M 12.929688 26.625 "/>
<path style=" stroke:none;fill-rule:nonzero;fill:rgb(41.960785%,75.294119%,65.882355%);fill-opacity:1;" d="M 8.191406 16.320312 C 8.605469 16.511719 8.605469 16.511719 9.023438 16.703125 C 8.898438 16.765625 8.898438 16.765625 8.769531 16.832031 C 8.769531 16.789062 8.769531 16.746094 8.769531 16.703125 C 8.640625 16.703125 8.515625 16.703125 8.382812 16.703125 C 8.40625 16.640625 8.425781 16.578125 8.449219 16.511719 C 8.363281 16.511719 8.277344 16.511719 8.191406 16.511719 C 8.191406 16.449219 8.191406 16.386719 8.191406 16.320312 Z M 8.191406 16.320312 "/>
<path style=" stroke:none;fill-rule:nonzero;fill:rgb(31.764707%,70.980394%,60.784316%);fill-opacity:1;" d="M 3.839844 12.863281 C 3.882812 12.925781 3.925781 12.992188 3.96875 13.054688 C 3.945312 13.121094 3.925781 13.183594 3.902344 13.246094 C 3.773438 13.292969 3.773438 13.292969 3.648438 13.3125 C 3.648438 13.355469 3.648438 13.394531 3.648438 13.441406 C 3.605469 13.441406 3.5625 13.441406 3.519531 13.441406 C 3.5625 13.3125 3.605469 13.1875 3.648438 13.054688 C 3.710938 13.054688 3.773438 13.054688 3.839844 13.054688 C 3.839844 12.992188 3.839844 12.929688 3.839844 12.863281 Z M 3.839844 12.863281 "/>
<path style=" stroke:none;fill-rule:nonzero;fill:rgb(31.764707%,71.764708%,62.7451%);fill-opacity:1;" d="M 17.472656 28.097656 C 17.554688 28.117188 17.640625 28.136719 17.726562 28.160156 C 17.652344 28.289062 17.652344 28.289062 17.535156 28.414062 C 17.363281 28.433594 17.363281 28.433594 17.214844 28.414062 C 17.214844 28.351562 17.214844 28.289062 17.214844 28.222656 C 17.300781 28.222656 17.386719 28.222656 17.472656 28.222656 C 17.472656 28.183594 17.472656 28.140625 17.472656 28.097656 Z M 17.472656 28.097656 "/>
<path style=" stroke:none;fill-rule:nonzero;fill:rgb(44.313726%,74.509805%,66.274512%);fill-opacity:1;" d="M 5.183594 18.175781 C 5.34375 18.207031 5.34375 18.207031 5.503906 18.238281 C 5.503906 18.304688 5.503906 18.367188 5.503906 18.433594 C 5.566406 18.453125 5.628906 18.472656 5.695312 18.496094 C 5.675781 18.582031 5.652344 18.664062 5.632812 18.753906 C 5.535156 18.664062 5.535156 18.664062 5.441406 18.558594 C 5.441406 18.519531 5.441406 18.476562 5.441406 18.433594 C 5.398438 18.433594 5.355469 18.433594 5.3125 18.433594 C 5.269531 18.347656 5.226562 18.261719 5.183594 18.175781 Z M 5.183594 18.175781 "/>
<path style=" stroke:none;fill-rule:nonzero;fill:rgb(51.372552%,78.039217%,71.764708%);fill-opacity:1;" d="M 10.257812 13.941406 C 10.359375 13.941406 10.359375 13.941406 10.464844 13.945312 C 10.515625 13.949219 10.570312 13.949219 10.625 13.953125 C 10.625 13.972656 10.625 13.996094 10.625 14.015625 C 10.28125 14.09375 9.953125 14.164062 9.601562 14.144531 C 9.816406 13.945312 9.964844 13.929688 10.257812 13.941406 Z M 10.257812 13.941406 "/>
<path style=" stroke:none;fill-rule:nonzero;fill:rgb(42.352942%,75.294119%,67.450982%);fill-opacity:1;" d="M 5.566406 9.535156 C 5.636719 9.714844 5.628906 9.804688 5.589844 9.996094 C 5.503906 10.175781 5.503906 10.175781 5.367188 10.230469 C 5.328125 10.234375 5.289062 10.238281 5.246094 10.238281 C 5.339844 9.996094 5.449219 9.765625 5.566406 9.535156 Z M 5.566406 9.535156 "/>
<path style=" stroke:none;fill-rule:nonzero;fill:rgb(36.470589%,72.549021%,64.313728%);fill-opacity:1;" d="M 13.695312 27.457031 C 13.78125 27.457031 13.863281 27.457031 13.953125 27.457031 C 13.953125 27.519531 13.953125 27.582031 13.953125 27.648438 C 14.015625 27.648438 14.078125 27.648438 14.144531 27.648438 C 14.164062 27.753906 14.1875 27.859375 14.207031 27.96875 C 14.164062 27.96875 14.125 27.96875 14.078125 27.96875 C 14.078125 27.925781 14.078125 27.882812 14.078125 27.839844 C 14.039062 27.839844 13.996094 27.839844 13.953125 27.839844 C 13.863281 27.714844 13.777344 27.585938 13.695312 27.457031 Z M 13.695312 27.457031 "/>
<path style=" stroke:none;fill-rule:nonzero;fill:rgb(41.960785%,74.901962%,65.882355%);fill-opacity:1;" d="M 23.679688 21.566406 C 23.679688 21.632812 23.679688 21.695312 23.679688 21.761719 C 23.636719 21.761719 23.59375 21.761719 23.550781 21.761719 C 23.550781 21.800781 23.550781 21.84375 23.550781 21.886719 C 23.507812 21.886719 23.46875 21.886719 23.425781 21.886719 C 23.402344 21.953125 23.382812 22.015625 23.359375 22.078125 C 23.339844 22.078125 23.316406 22.078125 23.296875 22.078125 C 23.28125 21.933594 23.28125 21.933594 23.296875 21.761719 C 23.425781 21.632812 23.496094 21.566406 23.679688 21.566406 Z M 23.679688 21.566406 "/>
<path style=" stroke:none;fill-rule:nonzero;fill:rgb(47.843137%,78.039217%,69.411767%);fill-opacity:1;" d="M 21.203125 16.3125 C 21.289062 16.316406 21.289062 16.316406 21.378906 16.316406 C 21.4375 16.316406 21.496094 16.316406 21.558594 16.316406 C 21.605469 16.320312 21.648438 16.320312 21.695312 16.320312 C 21.695312 16.339844 21.695312 16.363281 21.695312 16.382812 C 21.363281 16.476562 21.082031 16.527344 20.734375 16.511719 C 20.777344 16.492188 20.816406 16.472656 20.859375 16.453125 C 21.121094 16.316406 21.121094 16.316406 21.203125 16.3125 Z M 21.203125 16.3125 "/>
<path style=" stroke:none;fill-rule:nonzero;fill:rgb(38.039216%,71.372551%,62.7451%);fill-opacity:1;" d="M 9.664062 15.871094 C 9.707031 15.933594 9.75 16 9.792969 16.0625 C 9.921875 16.109375 9.921875 16.109375 10.046875 16.128906 C 10.046875 16.171875 10.046875 16.210938 10.046875 16.257812 C 9.957031 16.238281 9.863281 16.21875 9.773438 16.199219 C 9.722656 16.191406 9.667969 16.179688 9.617188 16.167969 C 9.472656 16.128906 9.472656 16.128906 9.28125 16 C 9.40625 16 9.535156 16 9.664062 16 C 9.664062 15.957031 9.664062 15.914062 9.664062 15.871094 Z M 9.664062 15.871094 "/>
<path style=" stroke:none;fill-rule:nonzero;fill:rgb(37.254903%,72.941178%,63.529414%);fill-opacity:1;" d="M 8.449219 15.296875 C 8.566406 15.308594 8.566406 15.308594 8.703125 15.359375 C 8.785156 15.523438 8.785156 15.523438 8.832031 15.679688 C 8.769531 15.710938 8.769531 15.710938 8.703125 15.742188 C 8.660156 15.722656 8.621094 15.703125 8.574219 15.679688 C 8.574219 15.636719 8.574219 15.59375 8.574219 15.550781 C 8.535156 15.550781 8.492188 15.550781 8.449219 15.550781 C 8.449219 15.46875 8.449219 15.382812 8.449219 15.296875 Z M 8.449219 15.296875 "/>
<path style=" stroke:none;fill-rule:nonzero;fill:rgb(33.725491%,71.764708%,61.56863%);fill-opacity:1;" d="M 4.351562 11.839844 C 4.375 11.839844 4.394531 11.839844 4.414062 11.839844 C 4.394531 12.007812 4.375 12.179688 4.351562 12.351562 C 4.289062 12.375 4.226562 12.394531 4.160156 12.414062 C 4.144531 12.21875 4.144531 12.121094 4.253906 11.949219 C 4.285156 11.914062 4.316406 11.875 4.351562 11.839844 Z M 4.351562 11.839844 "/>
<path style=" stroke:none;fill-rule:nonzero;fill:rgb(38.431373%,73.333335%,64.313728%);fill-opacity:1;" d="M 8.382812 21.375 C 8.449219 21.398438 8.511719 21.417969 8.574219 21.441406 C 8.574219 21.585938 8.574219 21.734375 8.574219 21.886719 C 8.535156 21.867188 8.492188 21.847656 8.449219 21.824219 C 8.449219 21.78125 8.449219 21.738281 8.449219 21.695312 C 8.382812 21.675781 8.320312 21.652344 8.257812 21.632812 C 8.296875 21.546875 8.339844 21.464844 8.382812 21.375 Z M 8.382812 21.375 "/>
<path style=" stroke:none;fill-rule:nonzero;fill:rgb(33.725491%,72.549021%,62.7451%);fill-opacity:1;" d="M 7.488281 20.289062 C 7.554688 20.402344 7.554688 20.402344 7.617188 20.542969 C 7.59375 20.605469 7.574219 20.671875 7.550781 20.734375 C 7.425781 20.628906 7.296875 20.523438 7.167969 20.414062 C 7.207031 20.40625 7.25 20.398438 7.292969 20.386719 C 7.421875 20.363281 7.421875 20.363281 7.488281 20.289062 Z M 7.488281 20.289062 "/>
<path style=" stroke:none;fill-rule:nonzero;fill:rgb(34.901962%,73.333335%,64.313728%);fill-opacity:1;" d="M 3.070312 15.871094 C 3.230469 15.902344 3.230469 15.902344 3.390625 15.9375 C 3.414062 16.0625 3.433594 16.1875 3.457031 16.320312 C 3.324219 16.214844 3.199219 16.109375 3.070312 16 C 3.070312 15.957031 3.070312 15.914062 3.070312 15.871094 Z M 3.070312 15.871094 "/>
<path style=" stroke:none;fill-rule:nonzero;fill:rgb(38.82353%,72.941178%,64.313728%);fill-opacity:1;" d="M 7.550781 15.359375 C 7.574219 15.359375 7.59375 15.359375 7.617188 15.359375 C 7.679688 15.570312 7.742188 15.78125 7.808594 16 C 7.722656 15.980469 7.640625 15.957031 7.550781 15.9375 C 7.496094 15.542969 7.496094 15.542969 7.488281 15.425781 C 7.507812 15.402344 7.53125 15.382812 7.550781 15.359375 Z M 7.550781 15.359375 "/>
<path style=" stroke:none;fill-rule:nonzero;fill:rgb(35.686275%,73.333335%,64.313728%);fill-opacity:1;" d="M 9.535156 14.464844 C 9.515625 14.546875 9.492188 14.632812 9.472656 14.71875 C 9.289062 14.761719 9.289062 14.761719 9.089844 14.785156 C 9.046875 14.742188 9.003906 14.699219 8.960938 14.65625 C 9.390625 14.464844 9.390625 14.464844 9.535156 14.464844 Z M 9.535156 14.464844 "/>
<path style=" stroke:none;fill-rule:nonzero;fill:rgb(44.705883%,76.078433%,68.235296%);fill-opacity:1;" d="M 6.785156 7.296875 C 6.804688 7.378906 6.828125 7.464844 6.847656 7.550781 C 6.804688 7.550781 6.761719 7.550781 6.71875 7.550781 C 6.710938 7.613281 6.703125 7.671875 6.695312 7.734375 C 6.65625 7.9375 6.65625 7.9375 6.527344 8.0625 C 6.464844 7.871094 6.464844 7.871094 6.527344 7.726562 C 6.558594 7.675781 6.589844 7.625 6.621094 7.570312 C 6.648438 7.519531 6.679688 7.46875 6.710938 7.414062 C 6.734375 7.375 6.757812 7.335938 6.785156 7.296875 Z M 6.785156 7.296875 "/>
<path style=" stroke:none;fill-rule:nonzero;fill:rgb(42.352942%,75.294119%,67.058825%);fill-opacity:1;" d="M 9.792969 23.230469 C 9.941406 23.253906 10.085938 23.273438 10.238281 23.296875 C 10.21875 23.359375 10.199219 23.421875 10.175781 23.488281 C 10.21875 23.53125 10.261719 23.574219 10.304688 23.617188 C 10.113281 23.617188 10.113281 23.617188 10.003906 23.527344 C 9.921875 23.425781 9.921875 23.425781 9.921875 23.296875 C 9.878906 23.273438 9.835938 23.253906 9.792969 23.230469 Z M 9.792969 23.230469 "/>
<path style=" stroke:none;fill-rule:nonzero;fill:rgb(48.627451%,77.254903%,70.19608%);fill-opacity:1;" d="M 23.039062 14.398438 C 23.285156 14.441406 23.515625 14.5 23.742188 14.59375 C 23.765625 14.65625 23.785156 14.71875 23.808594 14.785156 C 23.550781 14.683594 23.292969 14.574219 23.039062 14.464844 C 23.039062 14.441406 23.039062 14.421875 23.039062 14.398438 Z M 23.039062 14.398438 "/>
<path style=" stroke:none;fill-rule:nonzero;fill:rgb(46.27451%,77.254903%,69.803923%);fill-opacity:1;" d="M 23.359375 4.734375 C 23.667969 4.761719 23.796875 4.894531 24 5.121094 C 23.894531 5.097656 23.789062 5.078125 23.679688 5.054688 C 23.679688 5.015625 23.679688 4.972656 23.679688 4.929688 C 23.617188 4.929688 23.554688 4.929688 23.488281 4.929688 C 23.488281 4.886719 23.488281 4.84375 23.488281 4.800781 C 23.445312 4.777344 23.402344 4.757812 23.359375 4.734375 Z M 23.359375 4.734375 "/>
<path style=" stroke:none;fill-rule:nonzero;fill:rgb(17.254902%,68.627453%,55.686277%);fill-opacity:1;" d="M 12.160156 16.449219 C 12.253906 16.445312 12.347656 16.441406 12.441406 16.441406 C 12.492188 16.4375 12.542969 16.4375 12.597656 16.433594 C 12.734375 16.449219 12.734375 16.449219 12.863281 16.574219 C 12.589844 16.65625 12.421875 16.617188 12.160156 16.511719 C 12.160156 16.492188 12.160156 16.46875 12.160156 16.449219 Z M 12.160156 16.449219 "/>
<path style=" stroke:none;fill-rule:nonzero;fill:rgb(42.352942%,74.509805%,66.274512%);fill-opacity:1;" d="M 24.832031 6.65625 C 24.996094 6.738281 25.015625 6.8125 25.097656 6.972656 C 25.117188 7.015625 25.140625 7.0625 25.164062 7.109375 C 25.214844 7.230469 25.214844 7.230469 25.214844 7.359375 C 25.171875 7.359375 25.132812 7.359375 25.089844 7.359375 C 25.066406 7.296875 25.046875 7.234375 25.023438 7.167969 C 24.980469 7.148438 24.941406 7.125 24.894531 7.105469 C 24.871094 6.957031 24.847656 6.804688 24.832031 6.65625 Z M 24.832031 6.65625 "/>
<path style=" stroke:none;fill-rule:nonzero;fill:rgb(24.705882%,69.803923%,59.607846%);fill-opacity:1;" d="M 15.167969 28.222656 C 15.25 28.386719 15.214844 28.4375 15.167969 28.609375 C 15.167969 28.671875 15.167969 28.734375 15.167969 28.800781 C 15.105469 28.777344 15.042969 28.757812 14.976562 28.734375 C 14.953125 28.445312 14.953125 28.445312 15.070312 28.300781 C 15.105469 28.273438 15.136719 28.25 15.167969 28.222656 Z M 15.167969 28.222656 "/>
<path style=" stroke:none;fill-rule:nonzero;fill:rgb(39.215687%,71.764708%,63.137257%);fill-opacity:1;" d="M 5.695312 18.753906 C 6.058594 18.847656 6.058594 18.847656 6.167969 19.015625 C 6.1875 19.074219 6.1875 19.074219 6.207031 19.136719 C 6.125 19.136719 6.039062 19.136719 5.953125 19.136719 C 5.808594 18.945312 5.808594 18.945312 5.695312 18.753906 Z M 5.695312 18.753906 "/>
<path style=" stroke:none;fill-rule:nonzero;fill:rgb(34.509805%,70.980394%,61.56863%);fill-opacity:1;" d="M 28.03125 16.511719 C 28.117188 16.53125 28.199219 16.554688 28.289062 16.574219 C 28.265625 16.660156 28.246094 16.746094 28.222656 16.832031 C 28.183594 16.832031 28.140625 16.832031 28.097656 16.832031 C 28.074219 16.875 28.054688 16.917969 28.03125 16.960938 C 28.03125 16.8125 28.03125 16.664062 28.03125 16.511719 Z M 28.03125 16.511719 "/>
<path style=" stroke:none;fill-rule:nonzero;fill:rgb(50.588238%,78.039217%,71.372551%);fill-opacity:1;" d="M 8.960938 14.71875 C 8.960938 14.785156 8.960938 14.847656 8.960938 14.910156 C 8.855469 14.933594 8.75 14.953125 8.640625 14.976562 C 8.640625 15.019531 8.640625 15.058594 8.640625 15.105469 C 8.597656 15.105469 8.554688 15.105469 8.511719 15.105469 C 8.492188 15.144531 8.46875 15.1875 8.449219 15.230469 C 8.449219 15.167969 8.449219 15.105469 8.449219 15.039062 C 8.492188 15.039062 8.53125 15.039062 8.574219 15.039062 C 8.574219 14.996094 8.574219 14.957031 8.574219 14.910156 C 8.617188 14.910156 8.660156 14.910156 8.703125 14.910156 C 8.703125 14.871094 8.703125 14.828125 8.703125 14.785156 C 8.832031 14.71875 8.832031 14.71875 8.960938 14.71875 Z M 8.960938 14.71875 "/>
<path style=" stroke:none;fill-rule:nonzero;fill:rgb(43.529412%,73.725492%,65.882355%);fill-opacity:1;" d="M 7.105469 6.71875 C 7.148438 6.828125 7.148438 6.828125 7.167969 6.976562 C 7.085938 7.152344 7.085938 7.152344 6.976562 7.296875 C 6.933594 7.296875 6.890625 7.296875 6.847656 7.296875 C 6.925781 7.097656 7.007812 6.90625 7.105469 6.71875 Z M 7.105469 6.71875 "/>
<path style=" stroke:none;fill-rule:nonzero;fill:rgb(36.078432%,72.549021%,63.137257%);fill-opacity:1;" d="M 14.59375 28.03125 C 14.59375 28.160156 14.59375 28.285156 14.59375 28.414062 C 14.488281 28.308594 14.378906 28.203125 14.273438 28.097656 C 14.464844 28.03125 14.464844 28.03125 14.59375 28.03125 Z M 14.59375 28.03125 "/>
<path style=" stroke:none;fill-rule:nonzero;fill:rgb(36.862746%,73.725492%,65.098041%);fill-opacity:1;" d="M 19.710938 25.664062 C 19.796875 25.664062 19.882812 25.664062 19.96875 25.664062 C 19.96875 25.707031 19.96875 25.75 19.96875 25.792969 C 19.925781 25.792969 19.882812 25.792969 19.839844 25.792969 C 19.839844 25.835938 19.839844 25.875 19.839844 25.921875 C 19.796875 25.921875 19.753906 25.921875 19.710938 25.921875 C 19.691406 25.960938 19.667969 26.003906 19.648438 26.046875 C 19.644531 25.941406 19.644531 25.835938 19.648438 25.726562 C 19.667969 25.707031 19.691406 25.6875 19.710938 25.664062 Z M 19.710938 25.664062 "/>
<path style=" stroke:none;fill-rule:nonzero;fill:rgb(46.666667%,75.686276%,69.411767%);fill-opacity:1;" d="M 6.078125 19.199219 C 6.1875 19.199219 6.292969 19.199219 6.398438 19.199219 C 6.421875 19.328125 6.441406 19.453125 6.464844 19.585938 C 6.335938 19.496094 6.335938 19.496094 6.207031 19.390625 C 6.207031 19.351562 6.207031 19.308594 6.207031 19.265625 C 6.164062 19.242188 6.125 19.222656 6.078125 19.199219 Z M 6.078125 19.199219 "/>
<path style=" stroke:none;fill-rule:nonzero;fill:rgb(37.64706%,76.862746%,67.450982%);fill-opacity:1;" d="M 13.375 16.382812 C 13.375 16.40625 13.375 16.425781 13.375 16.449219 C 13.226562 16.46875 13.082031 16.492188 12.929688 16.511719 C 12.929688 16.554688 12.929688 16.597656 12.929688 16.640625 C 12.863281 16.617188 12.800781 16.597656 12.734375 16.574219 C 12.734375 16.535156 12.734375 16.492188 12.734375 16.449219 C 12.941406 16.34375 13.148438 16.378906 13.375 16.382812 Z M 13.375 16.382812 "/>
<path style=" stroke:none;fill-rule:nonzero;fill:rgb(28.235295%,68.627453%,56.470591%);fill-opacity:1;" d="M 23.871094 5.121094 C 23.996094 5.171875 23.996094 5.171875 24.128906 5.246094 C 24.148438 5.3125 24.171875 5.375 24.191406 5.441406 C 24.128906 5.460938 24.066406 5.480469 24 5.503906 C 23.871094 5.3125 23.871094 5.3125 23.871094 5.121094 Z M 23.871094 5.121094 "/>
<path style=" stroke:none;fill-rule:nonzero;fill:rgb(43.921569%,74.117649%,65.882355%);fill-opacity:1;" d="M 8.894531 4.734375 C 8.671875 4.890625 8.53125 4.953125 8.257812 4.929688 C 8.460938 4.703125 8.605469 4.644531 8.894531 4.734375 Z M 8.894531 4.734375 "/>
</g>
</svg>
